<svg width="20" height="20" viewBox="0 0 20 20" fill="none" xmlns="http://www.w3.org/2000/svg">
<path d="M7 2C6.25937 2 5.6125 2.40312 5.26875 3H3.5C2.67188 3 2 3.67188 2 4.5V14.5C2 15.3281 2.67188 16 3.5 16H8V7.5C8 6.11875 9.11875 5 10.5 5H12V4.5C12 3.67188 11.3281 3 10.5 3H8.73125C8.3875 2.40312 7.74063 2 7 2ZM10.5 6C9.67188 6 9 6.67188 9 7.5V16V16.5C9 17.3281 9.67188 18 10.5 18H16.5C17.3281 18 18 17.3281 18 16.5V10H15C14.4469 10 14 9.55313 14 9V6H12H10.5ZM7 3.25C7.19891 3.25 7.38968 3.32902 7.53033 3.46967C7.67098 3.61032 7.75 3.80109 7.75 4C7.75 4.19891 7.67098 4.38968 7.53033 4.53033C7.38968 4.67098 7.19891 4.75 7 4.75C6.80109 4.75 6.61032 4.67098 6.46967 4.53033C6.32902 4.38968 6.25 4.19891 6.25 4C6.25 3.80109 6.32902 3.61032 6.46967 3.46967C6.61032 3.32902 6.80109 3.25 7 3.25ZM15 6V9H18L15 6Z" fill="#A08CB5"/>
</svg>
