<svg width="30" height="30" viewBox="0 0 30 30" fill="none" xmlns="http://www.w3.org/2000/svg">
<path d="M20.3033 18.1821L17.1213 15.0001L20.3033 11.8181C20.6938 11.4276 20.6938 10.7943 20.3033 10.4039L19.5962 9.69678C19.2057 9.30632 18.5724 9.30632 18.182 9.69678L15 12.8788L11.818 9.69678C11.4276 9.30632 10.7943 9.30632 10.4038 9.69678L9.6967 10.4039C9.30624 10.7943 9.30624 11.4276 9.6967 11.8181L12.8787 15.0001L9.6967 18.1821C9.30624 18.5725 9.30624 19.2058 9.6967 19.5963L10.4038 20.3034C10.7943 20.6938 11.4276 20.6938 11.818 20.3034L15 17.1214L18.182 20.3034C18.5724 20.6938 19.2057 20.6938 19.5962 20.3034L20.3033 19.5963C20.6938 19.2058 20.6938 18.5725 20.3033 18.1821Z" fill="#4B4B4B"/>
</svg>
