<svg width="20" height="20" viewBox="0 0 20 20" fill="none" xmlns="http://www.w3.org/2000/svg">
<path d="M10.8641 19.2C12.7344 16.8594 17 11.1865 17 8C17 4.13542 13.8646 1 10 1C6.13542 1 3 4.13542 3 8C3 11.1865 7.26562 16.8594 9.13594 19.2C9.58437 19.7578 10.4156 19.7578 10.8641 19.2ZM10 5.66667C10.6188 5.66667 11.2123 5.9125 11.6499 6.35008C12.0875 6.78767 12.3333 7.38116 12.3333 8C12.3333 8.61884 12.0875 9.21233 11.6499 9.64992C11.2123 10.0875 10.6188 10.3333 10 10.3333C9.38116 10.3333 8.78767 10.0875 8.35008 9.64992C7.9125 9.21233 7.66667 8.61884 7.66667 8C7.66667 7.38116 7.9125 6.78767 8.35008 6.35008C8.78767 5.9125 9.38116 5.66667 10 5.66667Z" fill="#DBBCFB"/>
</svg>
