<svg width="20" height="20" viewBox="0 0 20 20" fill="none" xmlns="http://www.w3.org/2000/svg">
<path d="M9.99844 3C7.47366 3 5.45196 4.15 3.98021 5.51875C2.51784 6.875 1.5398 8.5 1.07734 9.61562C0.974221 9.8625 0.974221 10.1375 1.07734 10.3844C1.5398 11.5 2.51784 13.125 3.98021 14.4812C5.45196 15.85 7.47366 17 9.99844 17C12.5232 17 14.5449 15.85 16.0167 14.4812C17.479 13.1219 18.4571 11.5 18.9227 10.3844C19.0258 10.1375 19.0258 9.8625 18.9227 9.61562C18.4571 8.5 17.479 6.875 16.0167 5.51875C14.5449 4.15 12.5232 3 9.99844 3ZM5.49883 10C5.49883 8.80653 5.97289 7.66193 6.81673 6.81802C7.66057 5.97411 8.80507 5.5 9.99844 5.5C11.1918 5.5 12.3363 5.97411 13.1801 6.81802C14.024 7.66193 14.498 8.80653 14.498 10C14.498 11.1935 14.024 12.3381 13.1801 13.182C12.3363 14.0259 11.1918 14.5 9.99844 14.5C8.80507 14.5 7.66057 14.0259 6.81673 13.182C5.97289 12.3381 5.49883 11.1935 5.49883 10ZM9.99844 8C9.99844 9.10312 9.10164 10 7.99861 10C7.77676 10 7.56427 9.9625 7.36429 9.89687C7.19243 9.84062 6.99245 9.94688 6.9987 10.1281C7.00807 10.3438 7.03932 10.5594 7.09869 10.775C7.52678 12.375 9.17351 13.325 10.7734 12.8969C12.3732 12.4688 13.3231 10.8219 12.8951 9.22188C12.5482 7.925 11.4014 7.05313 10.1266 7C9.94532 6.99375 9.83908 7.19062 9.89532 7.36562C9.96094 7.56562 9.99844 7.77813 9.99844 8Z" fill="#A08CB5"/>
</svg>
