<?xml version="1.0" encoding="UTF-8"?>
<!DOCTYPE svg PUBLIC "-//W3C//DTD SVG 1.1//EN" "http://www.w3.org/Graphics/SVG/1.1/DTD/svg11.dtd">
<!-- Creator: CorelDRAW -->
<svg xmlns="http://www.w3.org/2000/svg" xml:space="preserve" width="8.5in" height="11in" version="1.1" style="shape-rendering:geometricPrecision; text-rendering:geometricPrecision; image-rendering:optimizeQuality; fill-rule:evenodd; clip-rule:evenodd"
viewBox="0 0 8.5 11"
 xmlns:xlink="http://www.w3.org/1999/xlink"
 xmlns:xodm="http://www.corel.com/coreldraw/odm/2003">
 <defs>
  <style type="text/css">
   <![CDATA[
    .fil0 {fill:#DBBCFB;fill-rule:nonzero}
   ]]>
  </style>
 </defs>
 <g id="Layer_x0020_1">
  <metadata id="CorelCorpID_0Corel-Layer"/>
  <path class="fil0" d="M4.25 5.42708c-0.0263,0 -0.04736,0.01198 -0.0627,0.02624 -0.01523,0.01413 -0.02542,0.03106 -0.03024,0.04268 -0.00107,0.00257 -0.00107,0.00544 0,0.00801 0.00482,0.01162 0.01501,0.02855 0.03024,0.04268 0.01533,0.01426 0.03639,0.02624 0.0627,0.02624 0.0263,0 0.04736,-0.01198 0.0627,-0.02624 0.01524,-0.01416 0.02542,-0.03106 0.03027,-0.04268 0.00107,-0.00257 0.00107,-0.00544 0,-0.00801 -0.00485,-0.01162 -0.01504,-0.02855 -0.03027,-0.04268 -0.01533,-0.01426 -0.03639,-0.02624 -0.0627,-0.02624zm-0.04687 0.07292c0,-0.02588 0.021,-0.04687 0.04687,-0.04687 0.02588,0 0.04687,0.02099 0.04687,0.04687 0,0.02588 -0.02099,0.04687 -0.04687,0.04687 -0.02588,0 -0.04687,-0.02099 -0.04687,-0.04687l-0 0zm0.04687 -0.02083c0,0.01149 -0.00934,0.02083 -0.02083,0.02083 -0.00231,0 -0.00452,-0.00039 -0.00661,-0.00107 -0.00179,-0.00059 -0.00387,0.00052 -0.00381,0.00241 0.0001,0.00225 0.00042,0.00449 0.00104,0.00674 0.00446,0.01667 0.02161,0.02656 0.03828,0.0221 0.01667,-0.00446 0.02656,-0.02161 0.0221,-0.03828 -0.00361,-0.01351 -0.01556,-0.02259 -0.02884,-0.02315 -0.00189,-0.00007 -0.003,0.00198 -0.00241,0.00381 0.00069,0.00208 0.00107,0.0043 0.00107,0.00661z"/>
 </g>
</svg>
