<?xml version="1.0" encoding="UTF-8"?>
<!DOCTYPE svg PUBLIC "-//W3C//DTD SVG 1.1//EN" "http://www.w3.org/Graphics/SVG/1.1/DTD/svg11.dtd">
<!-- Creator: CorelDRAW -->
<svg xmlns="http://www.w3.org/2000/svg" xml:space="preserve" width="1600px" height="1600px" version="1.1" style="shape-rendering:geometricPrecision; text-rendering:geometricPrecision; image-rendering:optimizeQuality; fill-rule:evenodd; clip-rule:evenodd"
viewBox="0 0 1600 1600"
 xmlns:xlink="http://www.w3.org/1999/xlink"
 xmlns:xodm="http://www.corel.com/coreldraw/odm/2003">
 <defs>
  <style type="text/css">
   <![CDATA[
    .fil0 {fill:white;fill-rule:nonzero}
   ]]>
  </style>
 </defs>
 <g id="Layer_x0020_1">
  <metadata id="CorelCorpID_0Corel-Layer"/>
  <path class="fil0" d="M399.97 199.96c0,-110.32 89.7,-200.01 200.02,-200.01l500.03 0 0 400.02c0,55.32 44.69,100.01 100.01,100.01l400.02 0 0 900.06c0,110.32 -89.69,200.01 -200.01,200.01l-800.05 0c-110.32,0 -200.01,-89.69 -200.01,-200.01l-0.01 -350.02 544.1 0 -121.88 121.88c-29.38,29.38 -29.38,76.88 0,105.94 29.38,29.07 76.88,29.38 105.94,0l250.02 -250.01c29.38,-29.38 29.38,-76.88 0,-105.95l-250.02 -250.01c-29.37,-29.38 -76.88,-29.38 -105.94,0 -29.07,29.37 -29.38,76.88 0,105.94l121.88 121.88 -544.1 0 0 -699.73zm0 700.05l0 150.01 -325.01 0c-41.57,0 -75.01,-33.44 -75.01,-75.01 0,-41.56 33.44,-75 75.01,-75l325.01 0zm1200.08 -500.04l-400.02 0 0 -400.02 400.02 400.02z"/>
 </g>
</svg>
