<svg width="20" height="20" viewBox="0 0 20 20" fill="none" xmlns="http://www.w3.org/2000/svg">
<path fill-rule="evenodd" clip-rule="evenodd" d="M9.72934 1.15068C9.93077 0.949774 10.2579 0.949774 10.4593 1.15068L10.4609 1.14907L13.0392 3.72064C13.2406 3.92155 13.2406 4.24782 13.0392 4.44872C12.8378 4.64962 12.5106 4.64962 12.3092 4.44872L11 3.14414V9H16.6668L15.5497 7.88104C15.3488 7.67962 15.3488 7.3525 15.5497 7.15107C15.7506 6.94964 16.0768 6.94964 16.2778 7.15107L18.8493 9.72934C19.0502 9.93077 19.0502 10.2579 18.8493 10.4593L18.8509 10.4609L16.2794 13.0392C16.0785 13.2406 15.7522 13.2406 15.5513 13.0392C15.3504 12.8378 15.3504 12.5106 15.5513 12.3092L16.8559 11H11V16.8567L12.3092 15.5497C12.5106 15.3488 12.8377 15.3488 13.0392 15.5497C13.2406 15.7506 13.2406 16.0768 13.0392 16.2778L10.4609 18.8493C10.2595 19.0502 9.93236 19.0502 9.73093 18.8493L9.72932 18.8509L7.15105 16.2794C6.94963 16.0785 6.94963 15.7522 7.15105 15.5513C7.35248 15.3504 7.6796 15.3504 7.88103 15.5513L9 16.6663V11H3.14339L4.45033 12.3091C4.65123 12.5105 4.65123 12.8376 4.45033 13.0391C4.24942 13.2405 3.92315 13.2405 3.72225 13.0391L1.15068 10.4608C0.949774 10.2594 0.949774 9.93225 1.15068 9.73083L1.14907 9.72921L3.72064 7.15095C3.92155 6.94952 4.24782 6.94952 4.44872 7.15095C4.64962 7.35237 4.64962 7.67949 4.44872 7.88092L3.3336 9H9V3.33322L7.88104 4.45033C7.67962 4.65123 7.3525 4.65123 7.15107 4.45033C6.94964 4.24942 6.94964 3.92315 7.15107 3.72225L9.72934 1.15068Z" fill="#DDDDDD"/>
</svg>
