<svg width="20" height="20" viewBox="0 0 20 20" fill="none" xmlns="http://www.w3.org/2000/svg">
<path d="M17.3125 10C17.3125 8.0606 16.5421 6.20064 15.1707 4.82928C13.7994 3.45792 11.9394 2.6875 10 2.6875C8.0606 2.6875 6.20064 3.45792 4.82928 4.82928C3.45792 6.20064 2.6875 8.0606 2.6875 10C2.6875 11.9394 3.45792 13.7994 4.82928 15.1707C6.20064 16.5421 8.0606 17.3125 10 17.3125C11.9394 17.3125 13.7994 16.5421 15.1707 15.1707C16.5421 13.7994 17.3125 11.9394 17.3125 10ZM1 10C1 7.61305 1.94821 5.32387 3.63604 3.63604C5.32387 1.94821 7.61305 1 10 1C12.3869 1 14.6761 1.94821 16.364 3.63604C18.0518 5.32387 19 7.61305 19 10C19 12.3869 18.0518 14.6761 16.364 16.364C14.6761 18.0518 12.3869 19 10 19C7.61305 19 5.32387 18.0518 3.63604 16.364C1.94821 14.6761 1 12.3869 1 10ZM7.61992 6.17148C7.88711 6.02383 8.21055 6.02734 8.47422 6.18906L13.5367 9.28281C13.7863 9.4375 13.941 9.7082 13.941 10.0035C13.941 10.2988 13.7863 10.5695 13.5367 10.7242L8.47422 13.818C8.21406 13.9762 7.88711 13.9832 7.61992 13.8355C7.35273 13.6879 7.1875 13.4066 7.1875 13.1008V6.90625C7.1875 6.60039 7.35273 6.31914 7.61992 6.17148Z" fill="#212121"/>
</svg>
