<?xml version="1.0" encoding="utf-8"?>
<!-- Generator: Adobe Illustrator 27.8.1, SVG Export Plug-In . SVG Version: 6.00 Build 0)  -->
<svg version="1.1" id="Layer_1" xmlns="http://www.w3.org/2000/svg" xmlns:xlink="http://www.w3.org/1999/xlink" x="0px" y="0px"
	 viewBox="0 0 206.39 197.72" style="enable-background:new 0 0 206.39 197.72;" xml:space="preserve">
<style type="text/css">
	.st0{fill:#1A351F;}
	.st1{fill:none;stroke:#FFFFFF;stroke-width:8;stroke-miterlimit:10;}
	.st2{fill:#FFFFFF;}
</style>
<path class="st0" d="M175.11,197.72H31.27C14,197.72,0,183.72,0,166.45V31.27C0,14,14,0,31.27,0h143.84
	c17.27,0,31.27,14,31.27,31.27v135.17C206.39,183.72,192.39,197.72,175.11,197.72z"/>
<path class="st1" d="M110.18,155.95"/>
<path class="st1" d="M124.28,152.17"/>
<path class="st1" d="M81.47,152.17"/>
<g>
	<path class="st2" d="M106.83,57.14V44.37h-8v12.8c1.38-0.13,2.78-0.21,4.2-0.21C104.3,56.97,105.57,57.03,106.83,57.14z"/>
	<path class="st2" d="M98.83,143.44v12.8h8v-12.77c-1.25,0.11-2.52,0.18-3.8,0.18C101.61,143.65,100.21,143.57,98.83,143.44z"/>
	<path class="st2" d="M113.44,155.37l7.73-2.07l-3.29-12.27c-2.48,0.91-5.07,1.58-7.74,2.02L113.44,155.37z"/>
	<path class="st2" d="M92.21,45.24l-7.73,2.07l3.32,12.41c2.47-0.93,5.06-1.63,7.72-2.09L92.21,45.24z"/>
	<path class="st2" d="M78.32,49.86l-6.93,4l6.45,11.17c2.16-1.55,4.47-2.9,6.91-4.03L78.32,49.86z"/>
	<path class="st2" d="M127.33,150.75l6.93-4l-6.34-10.98c-2.18,1.53-4.5,2.86-6.94,3.98L127.33,150.75z"/>
	<path class="st2" d="M75.23,67.05l-9.13-9.13l-5.66,5.66l9.14,9.14C71.29,70.66,73.18,68.77,75.23,67.05z"/>
	<path class="st2" d="M130.6,133.74l8.95,8.95l5.66-5.66l-8.93-8.93C134.56,130.14,132.66,132.04,130.6,133.74z"/>
	<path class="st2" d="M56.38,68.87l-4,6.93l11.22,6.48c1.12-2.44,2.46-4.76,3.99-6.93L56.38,68.87z"/>
	<path class="st2" d="M149.27,131.74l4-6.93l-10.91-6.3c-1.13,2.44-2.48,4.75-4.02,6.91L149.27,131.74z"/>
	<path class="st2" d="M49.83,81.96l-2.07,7.73l12.54,3.36c0.45-2.67,1.13-5.26,2.05-7.73L49.83,81.96z"/>
	<path class="st2" d="M155.82,118.65l2.07-7.73l-12.16-3.26c-0.46,2.67-1.15,5.25-2.07,7.73L155.82,118.65z"/>
	<path class="st2" d="M59.87,96.31H46.89v8h12.98c-0.12-1.32-0.19-2.65-0.19-4C59.68,98.96,59.75,97.62,59.87,96.31z"/>
	<path class="st2" d="M146.17,104.31h12.59v-8h-12.59c0.12,1.32,0.19,2.65,0.19,4C146.36,101.65,146.29,102.99,146.17,104.31z"/>
	<path class="st2" d="M47.76,110.92l2.07,7.73l12.51-3.35c-0.91-2.48-1.6-5.07-2.05-7.73L47.76,110.92z"/>
	<path class="st2" d="M157.89,89.69l-2.07-7.73l-12.16,3.26c0.92,2.48,1.61,5.06,2.07,7.73L157.89,89.69z"/>
	<path class="st2" d="M153.27,75.8l-4-6.93l-10.94,6.31c1.54,2.17,2.89,4.48,4.02,6.92L153.27,75.8z"/>
	<path class="st2" d="M52.38,124.81l4,6.93l11.22-6.47c-1.53-2.17-2.87-4.49-3.99-6.93L52.38,124.81z"/>
	<path class="st2" d="M136.27,72.51l8.93-8.93l-5.66-5.66l-8.95,8.95C132.66,68.57,134.56,70.47,136.27,72.51z"/>
	<path class="st2" d="M69.59,127.89l-9.14,9.14l5.66,5.66l9.13-9.13C73.18,131.84,71.29,129.95,69.59,127.89z"/>
	<path class="st2" d="M71.39,146.75l6.93,4l6.43-11.14c-2.43-1.13-4.74-2.49-6.91-4.03L71.39,146.75z"/>
	<path class="st2" d="M134.26,53.86l-6.93-4l-6.35,11c2.44,1.11,4.77,2.45,6.94,3.98L134.26,53.86z"/>
	<path class="st2" d="M121.17,47.31l-7.73-2.07l-3.3,12.32c2.67,0.44,5.26,1.12,7.74,2.02L121.17,47.31z"/>
	<path class="st2" d="M84.48,153.3l7.73,2.07l3.32-12.38c-2.66-0.46-5.25-1.17-7.72-2.09L84.48,153.3z"/>
</g>
<rect x="136.18" y="140.58" transform="matrix(0.7941 -0.6078 0.6078 0.7941 -62.9188 116.9831)" class="st2" width="10" height="21.54"/>
</svg>
