<?xml version="1.0" encoding="UTF-8"?>
<!DOCTYPE svg PUBLIC "-//W3C//DTD SVG 1.1//EN" "http://www.w3.org/Graphics/SVG/1.1/DTD/svg11.dtd">
<!-- Creator: CorelDRAW -->
<svg xmlns="http://www.w3.org/2000/svg" xml:space="preserve" width="8.5in" height="11in" version="1.1" style="shape-rendering:geometricPrecision; text-rendering:geometricPrecision; image-rendering:optimizeQuality; fill-rule:evenodd; clip-rule:evenodd"
viewBox="0 0 8500 11000"
 xmlns:xlink="http://www.w3.org/1999/xlink"
 xmlns:xodm="http://www.corel.com/coreldraw/odm/2003">
 <defs>
  <style type="text/css">
   <![CDATA[
    .fil0 {fill:#BE82FA}
   ]]>
  </style>
 </defs>
 <g id="Layer_x0020_1">
  <metadata id="CorelCorpID_0Corel-Layer"/>
  <path class="fil0" d="M3830.12 7207.83c0,-231.89 187.99,-419.88 419.88,-419.88 231.89,0 419.88,187.99 419.88,419.88 0,231.89 -187.99,419.88 -419.88,419.88 -231.89,0 -419.88,-187.99 -419.88,-419.88zm-52.48 -3003.77c0,173.92 -140.99,314.91 -314.91,314.91 -173.92,0 -314.91,-140.99 -314.91,-314.91 0,-304.32 123.39,-579.87 322.85,-779.34 199.47,-199.46 475.02,-322.85 779.34,-322.85 304.32,0 579.87,123.38 779.34,322.85 199.47,199.47 322.85,475.02 322.85,779.34 0,197.15 -52.68,383.13 -144.86,544.66 -95.4,167.18 -232.64,306.73 -397.1,404.04 -80.56,47.65 -159,105.85 -207.82,170.38 -22.8,30.14 -37.5,60.37 -37.5,88.08l0 524.86c0,173.92 -140.99,314.91 -314.91,314.91 -173.92,0 -314.91,-140.99 -314.91,-314.91l0 -524.86c0,-178.69 64.81,-333.98 165.43,-466.96 105.09,-138.9 248.89,-249.36 389.88,-332.76 71.26,-42.16 130.28,-101.84 170.75,-172.77 38.95,-68.25 61.22,-148.3 61.22,-234.67 0,-130.47 -52.87,-248.57 -138.33,-334.04 -85.46,-85.46 -203.57,-138.33 -334.04,-138.33 -130.46,0 -248.57,52.87 -334.03,138.33 -85.46,85.46 -138.33,203.56 -138.33,334.03zm-2332.59 1165.94c0,1549.14 1255.82,2804.96 2804.96,2804.96 1549.14,0 2804.96,-1255.82 2804.96,-2804.96 0,-1549.14 -1255.82,-2804.96 -2804.96,-2804.96 -1549.14,0 -2804.96,1255.82 -2804.96,2804.96z"/>
 </g>
</svg>
