<svg width="20" height="20" viewBox="0 0 20 20" fill="none" xmlns="http://www.w3.org/2000/svg">
<path d="M16.8794 8.62166H17.1725C17.6311 8.62166 18 8.25271 18 7.79412V3.38056C18 3.0461 17.8 2.74266 17.4897 2.61508C17.1794 2.48751 16.8242 2.55647 16.5863 2.79439L15.1519 4.22879C12.1314 1.24619 7.2661 1.25654 4.26281 4.26327C1.24573 7.28035 1.24573 12.1697 4.26281 15.1868C7.27989 18.2039 12.1693 18.2039 15.1864 15.1868C15.6174 14.7558 15.6174 14.0558 15.1864 13.6248C14.7553 13.1938 14.0554 13.1938 13.6244 13.6248C11.4693 15.7799 7.9764 15.7799 5.82135 13.6248C3.66629 11.4698 3.66629 7.97686 5.82135 5.82181C7.96606 3.6771 11.4314 3.66675 13.5899 5.78733L12.1727 7.20794C11.9348 7.44586 11.8658 7.80101 11.9934 8.11134C12.121 8.42167 12.4244 8.62166 12.7589 8.62166H16.8794Z" fill="#DBBCFB"/>
</svg>
