<?xml version="1.0" encoding="UTF-8"?>
<!DOCTYPE svg PUBLIC "-//W3C//DTD SVG 1.1//EN" "http://www.w3.org/Graphics/SVG/1.1/DTD/svg11.dtd">
<!-- Creator: CorelDRAW -->
<svg xmlns="http://www.w3.org/2000/svg" xml:space="preserve" width="2550px" height="2550px" version="1.1" style="shape-rendering:geometricPrecision; text-rendering:geometricPrecision; image-rendering:optimizeQuality; fill-rule:evenodd; clip-rule:evenodd"
viewBox="0 0 2550 2550"
 xmlns:xlink="http://www.w3.org/1999/xlink"
 xmlns:xodm="http://www.corel.com/coreldraw/odm/2003">
 <defs>
  <style type="text/css">
   <![CDATA[
    .fil0 {fill:white}
   ]]>
  </style>
 </defs>
 <g id="Layer_x0020_1">
  <metadata id="CorelCorpID_0Corel-Layer"/>
  <path class="fil0" d="M97.98 14.26c-46.02,0 -83.33,37.31 -83.33,83.34l0 2333.33c0,46.02 37.31,83.33 83.33,83.33l666.67 0c46.02,0 83.33,-37.31 83.33,-83.33l0 -1583.33 1583.34 0c46.01,0 83.33,-37.31 83.33,-83.34l0 -666.66c0,-46.03 -37.32,-83.34 -83.33,-83.34l-2333.34 0zm83.34 679.18l0 -512.51 512.5 0c0,0 0,0 0,0l0 512.51 -512.5 0zm-0.01 141.66l0.01 1512.5 500 0 0 -179.17 -208.33 0c-39.13,0 -70.84,-31.7 -70.84,-70.83 0,-39.12 31.71,-70.84 70.84,-70.84l208.33 0 0 -191.66 -291.67 0c-39.12,0 -70.83,-31.72 -70.83,-70.84 0,-39.11 31.71,-70.83 70.83,-70.83l291.67 0 0 -191.66 -208.33 0c-39.13,0 -70.84,-31.72 -70.84,-70.84 0,-39.12 31.72,-70.83 70.84,-70.83l208.33 0 0 -191.67 -208.34 0c-39.12,0 -70.83,-31.71 -70.83,-70.83 0,-39.12 31.71,-70.84 70.83,-70.84l208.34 0.01 0 -191.66 -500.01 -0.01zm654.18 -154.17l191.66 0 0 -208.32c0,-39.12 31.71,-70.84 70.83,-70.84 39.12,0 70.84,31.72 70.84,70.84l0 208.32 191.67 0 0 -208.33c0,-39.12 31.71,-70.83 70.83,-70.83 39.12,0 70.83,31.71 70.83,70.83l0 208.33 191.68 0 0 -291.66c0,-39.12 31.7,-70.83 70.83,-70.83 39.12,0 70.84,31.71 70.84,70.83l0 291.66 191.66 0 0 -208.33c0,-39.12 31.72,-70.83 70.84,-70.83 39.11,0 70.83,31.71 70.83,70.83l0 208.33 179.15 0 0 -500 -1512.49 0 0 500z"/>
 </g>
</svg>
