<?xml version="1.0" encoding="UTF-8"?>
<!DOCTYPE svg PUBLIC "-//W3C//DTD SVG 1.1//EN" "http://www.w3.org/Graphics/SVG/1.1/DTD/svg11.dtd">
<!-- Creator: CorelDRAW -->
<svg xmlns="http://www.w3.org/2000/svg" xml:space="preserve" width="2550px" height="2550px" version="1.1" style="shape-rendering:geometricPrecision; text-rendering:geometricPrecision; image-rendering:optimizeQuality; fill-rule:evenodd; clip-rule:evenodd"
viewBox="0 0 2550 2550"
 xmlns:xlink="http://www.w3.org/1999/xlink"
 xmlns:xodm="http://www.corel.com/coreldraw/odm/2003">
 <defs>
  <style type="text/css">
   <![CDATA[
    .fil0 {fill:white}
   ]]>
  </style>
 </defs>
 <g id="Layer_x0020_1">
  <metadata id="CorelCorpID_0Corel-Layer"/>
  <path class="fil0" d="M106.83 2527.27c-46.12,0 -83.51,-37.39 -83.51,-83.52l0 -2338.49c0,-46.12 37.39,-83.51 83.51,-83.51l668.15 0c46.12,0 83.51,37.39 83.51,83.51l0 1586.83 1586.84 0c46.11,0 83.51,37.39 83.51,83.52l0 668.14c0,46.13 -37.4,83.52 -83.51,83.52l-2338.5 0zm83.53 -680.68l0 513.64 513.63 0c0,0 0,0 0,0l0 -513.64 -513.63 0zm-0.01 -141.97l0.01 -1515.85 501.1 0 0 179.57 -208.79 0c-39.21,0 -70.99,31.77 -70.99,70.99 0,39.2 31.78,70.99 70.99,70.99l208.79 0 0 192.09 -292.31 0c-39.21,0 -70.99,31.79 -70.99,70.99 0,39.2 31.78,70.99 70.99,70.99l292.31 0 0 192.08 -208.79 0c-39.21,0 -70.99,31.79 -70.99,71 0,39.21 31.78,70.99 70.99,70.99l208.79 0 0 192.09 -208.8 0c-39.2,0 -70.98,31.78 -70.98,70.99 0,39.2 31.78,70.99 70.98,70.99l208.8 -0.01 0 192.08 -501.11 0.02 0 0zm655.62 154.51l192.09 0 0 208.78c0,39.2 31.78,70.99 70.98,70.99 39.21,0 71,-31.79 71,-70.99l0 -208.78 192.09 0 0 208.79c0,39.2 31.78,70.98 70.99,70.98 39.2,0 70.98,-31.78 70.98,-70.98l0 -208.79 192.11 0 0 292.3c0,39.21 31.77,70.99 70.99,70.99 39.2,0 70.99,-31.78 70.99,-70.99l0 -292.3 192.09 0 0 208.79c0,39.2 31.79,70.98 70.99,70.98 39.2,0 70.99,-31.78 70.99,-70.98l0 -208.79 179.54 0 0 501.1 -1515.83 0 0 -501.1 0 0z"/>
 </g>
</svg>
