<svg width="24" height="27" viewBox="0 0 24 27" fill="none" xmlns="http://www.w3.org/2000/svg">
<g filter="url(#filter0_d_334_2825)">
<path d="M19.9556 7.52369C20.0617 7.81215 19.9722 8.13375 19.7435 8.33932L18.3078 9.64564C18.3443 9.92083 18.3642 10.2027 18.3642 10.4878C18.3642 10.7729 18.3443 11.0547 18.3078 11.3299L19.7435 12.6363C19.9722 12.8418 20.0617 13.1634 19.9556 13.4519C19.8098 13.8464 19.634 14.2244 19.4318 14.5891L19.276 14.8577C19.0571 15.2224 18.8118 15.5672 18.5432 15.8921C18.3476 16.1308 18.0227 16.2104 17.7309 16.1176L15.8842 15.5307C15.4399 15.8722 14.9492 16.1574 14.4253 16.3729L14.0109 18.2661C13.9446 18.5678 13.7125 18.8065 13.4074 18.8562C12.9499 18.9325 12.4791 18.9723 11.9983 18.9723C11.5176 18.9723 11.0468 18.9325 10.5892 18.8562C10.2842 18.8065 10.0521 18.5678 9.98581 18.2661L9.57136 16.3729C9.04751 16.1574 8.55681 15.8722 8.11253 15.5307L6.26908 16.1209C5.97732 16.2137 5.65239 16.1308 5.45678 15.8954C5.18822 15.5705 4.94287 15.2257 4.72404 14.861L4.56821 14.5924C4.36596 14.2277 4.19024 13.8498 4.04435 13.4552C3.93826 13.1667 4.02778 12.8451 4.25655 12.6396L5.69218 11.3333C5.65571 11.0547 5.63581 10.7729 5.63581 10.4878C5.63581 10.2027 5.65571 9.92083 5.69218 9.64564L4.25655 8.33932C4.02778 8.13375 3.93826 7.81215 4.04435 7.52369C4.19024 7.12915 4.36596 6.75117 4.56821 6.38646L4.72404 6.1179C4.94287 5.75319 5.18822 5.40838 5.45678 5.08346C5.65239 4.84474 5.97732 4.76516 6.26908 4.858L8.11584 5.44485C8.56012 5.10335 9.05082 4.81821 9.57468 4.6027L9.98912 2.70953C10.0554 2.40781 10.2875 2.16909 10.5926 2.11936C11.0501 2.03979 11.5209 2 12.0017 2C12.4824 2 12.9532 2.03979 13.4108 2.11604C13.7158 2.16578 13.9479 2.4045 14.0142 2.70621L14.4286 4.59939C14.9525 4.8149 15.4432 5.10003 15.8875 5.44153L17.7342 4.85468C18.026 4.76185 18.3509 4.84474 18.5465 5.08014C18.8151 5.40506 19.0605 5.74988 19.2793 6.11459L19.4351 6.38315C19.6374 6.74786 19.8131 7.12583 19.959 7.52038L19.9556 7.52369ZM12.0017 13.1402C12.7051 13.1402 13.3798 12.8608 13.8772 12.3633C14.3746 11.8659 14.6541 11.1913 14.6541 10.4878C14.6541 9.78432 14.3746 9.10966 13.8772 8.61224C13.3798 8.11481 12.7051 7.83536 12.0017 7.83536C11.2982 7.83536 10.6235 8.11481 10.1261 8.61224C9.62868 9.10966 9.34922 9.78432 9.34922 10.4878C9.34922 11.1913 9.62868 11.8659 10.1261 12.3633C10.6235 12.8608 11.2982 13.1402 12.0017 13.1402Z" fill="#DDDDDD"/>
</g>
<defs>
<filter id="filter0_d_334_2825" x="-2" y="0" width="28" height="28" filterUnits="userSpaceOnUse" color-interpolation-filters="sRGB">
<feFlood flood-opacity="0" result="BackgroundImageFix"/>
<feColorMatrix in="SourceAlpha" type="matrix" values="0 0 0 0 0 0 0 0 0 0 0 0 0 0 0 0 0 0 127 0" result="hardAlpha"/>
<feOffset dy="4"/>
<feGaussianBlur stdDeviation="2"/>
<feComposite in2="hardAlpha" operator="out"/>
<feColorMatrix type="matrix" values="0 0 0 0 0 0 0 0 0 0 0 0 0 0 0 0 0 0 0.25 0"/>
<feBlend mode="normal" in2="BackgroundImageFix" result="effect1_dropShadow_334_2825"/>
<feBlend mode="normal" in="SourceGraphic" in2="effect1_dropShadow_334_2825" result="shape"/>
</filter>
</defs>
</svg>
