<svg width="20" height="20" viewBox="0 0 20 20" fill="none" xmlns="http://www.w3.org/2000/svg">
<path d="M17.9556 7.52369C18.0617 7.81215 17.9722 8.13375 17.7435 8.33932L16.3078 9.64564C16.3443 9.92083 16.3642 10.2027 16.3642 10.4878C16.3642 10.7729 16.3443 11.0547 16.3078 11.3299L17.7435 12.6363C17.9722 12.8418 18.0617 13.1634 17.9556 13.4519C17.8098 13.8464 17.634 14.2244 17.4318 14.5891L17.276 14.8577C17.0571 15.2224 16.8118 15.5672 16.5432 15.8921C16.3476 16.1308 16.0227 16.2104 15.7309 16.1176L13.8842 15.5307C13.4399 15.8722 12.9492 16.1574 12.4253 16.3729L12.0109 18.2661C11.9446 18.5678 11.7125 18.8065 11.4074 18.8562C10.9499 18.9325 10.4791 18.9723 9.99834 18.9723C9.51759 18.9723 9.04678 18.9325 8.58924 18.8562C8.28421 18.8065 8.05212 18.5678 7.98581 18.2661L7.57136 16.3729C7.04751 16.1574 6.55681 15.8722 6.11253 15.5307L4.26908 16.1209C3.97732 16.2137 3.65239 16.1308 3.45678 15.8954C3.18822 15.5705 2.94287 15.2257 2.72404 14.861L2.56821 14.5924C2.36596 14.2277 2.19024 13.8498 2.04435 13.4552C1.93826 13.1667 2.02778 12.8451 2.25655 12.6396L3.69218 11.3333C3.65571 11.0547 3.63581 10.7729 3.63581 10.4878C3.63581 10.2027 3.65571 9.92083 3.69218 9.64564L2.25655 8.33932C2.02778 8.13375 1.93826 7.81215 2.04435 7.52369C2.19024 7.12915 2.36596 6.75117 2.56821 6.38646L2.72404 6.1179C2.94287 5.75319 3.18822 5.40838 3.45678 5.08346C3.65239 4.84474 3.97732 4.76516 4.26908 4.858L6.11584 5.44485C6.56012 5.10335 7.05082 4.81821 7.57468 4.6027L7.98912 2.70953C8.05543 2.40781 8.28752 2.16909 8.59255 2.11936C9.0501 2.03979 9.5209 2 10.0017 2C10.4824 2 10.9532 2.03979 11.4108 2.11604C11.7158 2.16578 11.9479 2.4045 12.0142 2.70621L12.4286 4.59939C12.9525 4.8149 13.4432 5.10003 13.8875 5.44153L15.7342 4.85468C16.026 4.76185 16.3509 4.84474 16.5465 5.08014C16.8151 5.40506 17.0605 5.74988 17.2793 6.11459L17.4351 6.38315C17.6374 6.74786 17.8131 7.12583 17.959 7.52038L17.9556 7.52369ZM10.0017 13.1402C10.7051 13.1402 11.3798 12.8608 11.8772 12.3633C12.3746 11.8659 12.6541 11.1913 12.6541 10.4878C12.6541 9.78432 12.3746 9.10966 11.8772 8.61224C11.3798 8.11481 10.7051 7.83536 10.0017 7.83536C9.29819 7.83536 8.62353 8.11481 8.1261 8.61224C7.62868 9.10966 7.34922 9.78432 7.34922 10.4878C7.34922 11.1913 7.62868 11.8659 8.1261 12.3633C8.62353 12.8608 9.29819 13.1402 10.0017 13.1402Z" fill="#DBBCFB"/>
</svg>
