<svg width="16" height="17" viewBox="0 0 16 17" fill="none" xmlns="http://www.w3.org/2000/svg">
<path d="M15.9556 5.52369C16.0617 5.81215 15.9722 6.13375 15.7435 6.33932L14.3078 7.64564C14.3443 7.92083 14.3642 8.20265 14.3642 8.48779C14.3642 8.77293 14.3443 9.05475 14.3078 9.32994L15.7435 10.6363C15.9722 10.8418 16.0617 11.1634 15.9556 11.4519C15.8098 11.8464 15.634 12.2244 15.4318 12.5891L15.276 12.8577C15.0571 13.2224 14.8118 13.5672 14.5432 13.8921C14.3476 14.1308 14.0227 14.2104 13.7309 14.1176L11.8842 13.5307C11.4399 13.8722 10.9492 14.1574 10.4253 14.3729L10.0109 16.2661C9.94457 16.5678 9.71248 16.8065 9.40745 16.8562C8.9499 16.9325 8.4791 16.9723 7.99834 16.9723C7.51759 16.9723 7.04678 16.9325 6.58924 16.8562C6.28421 16.8065 6.05212 16.5678 5.98581 16.2661L5.57136 14.3729C5.04751 14.1574 4.55681 13.8722 4.11253 13.5307L2.26908 14.1209C1.97732 14.2137 1.65239 14.1308 1.45678 13.8954C1.18822 13.5705 0.942866 13.2257 0.72404 12.861L0.56821 12.5924C0.365962 12.2277 0.190238 11.8498 0.0443539 11.4552C-0.0617435 11.1667 0.0277762 10.8451 0.256549 10.6396L1.69218 9.33325C1.65571 9.05475 1.63581 8.77293 1.63581 8.48779C1.63581 8.20265 1.65571 7.92083 1.69218 7.64564L0.256549 6.33932C0.0277762 6.13375 -0.0617435 5.81215 0.0443539 5.52369C0.190238 5.12915 0.365962 4.75117 0.56821 4.38646L0.72404 4.1179C0.942866 3.75319 1.18822 3.40838 1.45678 3.08346C1.65239 2.84474 1.97732 2.76516 2.26908 2.858L4.11584 3.44485C4.56012 3.10335 5.05082 2.81821 5.57468 2.6027L5.98912 0.709526C6.05543 0.407812 6.28752 0.169093 6.59255 0.11936C7.0501 0.0397865 7.5209 0 8.00166 0C8.48241 0 8.95322 0.0397865 9.41076 0.116044C9.71579 0.165777 9.94788 0.404496 10.0142 0.706211L10.4286 2.59939C10.9525 2.8149 11.4432 3.10003 11.8875 3.44153L13.7342 2.85468C14.026 2.76185 14.3509 2.84474 14.5465 3.08014C14.8151 3.40506 15.0605 3.74988 15.2793 4.11459L15.4351 4.38315C15.6374 4.74786 15.8131 5.12583 15.959 5.52038L15.9556 5.52369ZM8.00166 11.1402C8.70513 11.1402 9.37978 10.8608 9.87721 10.3633C10.3746 9.86592 10.6541 9.19126 10.6541 8.48779C10.6541 7.78432 10.3746 7.10966 9.87721 6.61224C9.37978 6.11481 8.70513 5.83536 8.00166 5.83536C7.29819 5.83536 6.62353 6.11481 6.1261 6.61224C5.62868 7.10966 5.34922 7.78432 5.34922 8.48779C5.34922 9.19126 5.62868 9.86592 6.1261 10.3633C6.62353 10.8608 7.29819 11.1402 8.00166 11.1402Z" fill="#DDDDDD"/>
</svg>
