<?xml version="1.0" encoding="UTF-8"?>
<!DOCTYPE svg PUBLIC "-//W3C//DTD SVG 1.1//EN" "http://www.w3.org/Graphics/SVG/1.1/DTD/svg11.dtd">
<!-- Creator: CorelDRAW -->
<svg xmlns="http://www.w3.org/2000/svg" xml:space="preserve" width="2550px" height="2550px" version="1.1" style="shape-rendering:geometricPrecision; text-rendering:geometricPrecision; image-rendering:optimizeQuality; fill-rule:evenodd; clip-rule:evenodd"
viewBox="0 0 2550 2550"
 xmlns:xlink="http://www.w3.org/1999/xlink"
 xmlns:xodm="http://www.corel.com/coreldraw/odm/2003">
 <defs>
  <style type="text/css">
   <![CDATA[
    .fil0 {fill:white;fill-rule:nonzero}
   ]]>
  </style>
 </defs>
 <g id="Layer_x0020_1">
  <metadata id="CorelCorpID_0Corel-Layer"/>
  <path class="fil0" d="M1721.49 813.57c129.52,0 240.36,-83.45 281.46,-198.03l430.92 0c51.06,0 95.9,-44.83 95.9,-100.88 0,-56.04 -44.84,-99.63 -95.9,-99.63l-429.67 0c-42.35,-115.83 -153.19,-200.51 -282.71,-200.51 -129.53,0 -240.37,84.68 -281.47,200.51l-1318.91 0c-56.05,0 -100.88,43.59 -100.88,99.63 0,56.05 44.83,100.88 100.88,100.88l1318.91 0c41.1,114.58 151.94,198.03 281.47,198.03zm0 -153.19c-80.96,0 -145.72,-64.76 -145.72,-146.96 0,-82.2 64.76,-145.71 145.72,-145.71 82.19,0 145.71,63.51 145.71,145.71 0,82.2 -63.52,146.96 -145.71,146.96zm-1605.37 514.36c-51.06,0 -95.89,44.84 -95.89,100.88 0,56.05 44.83,99.64 95.89,99.64l444.63 0c41.09,117.07 151.93,200.51 281.46,200.51 130.77,0 241.61,-83.44 282.71,-200.51l1303.97 0c56.04,0 100.88,-43.59 100.88,-99.64 0,-56.04 -44.84,-100.88 -100.88,-100.88l-1303.97 0c-42.34,-114.58 -153.19,-198.02 -282.71,-198.02 -128.28,0 -239.12,83.44 -281.46,198.02l-444.63 0zm726.09 246.6c-80.95,0 -145.72,-64.76 -145.72,-145.72 0,-82.2 64.77,-145.71 145.72,-145.71 83.44,0 145.71,63.51 145.71,145.71 0,80.96 -62.27,145.72 -145.71,145.72zm879.28 914.14c129.52,0 240.36,-83.44 281.46,-199.27l430.92 0c51.06,0 95.9,-43.58 95.9,-99.63 0,-56.05 -44.84,-100.88 -95.9,-100.88l-430.92 0c-41.1,-115.82 -151.94,-198.02 -281.46,-198.02 -129.53,0 -240.37,82.2 -281.47,198.02l-1318.91 0c-56.05,0 -100.88,44.83 -100.88,100.88 0,56.05 44.83,99.63 100.88,99.63l1318.91 0c41.1,115.83 151.94,199.27 281.47,199.27zm0 -153.19c-80.96,0 -145.72,-64.76 -145.72,-145.71 0,-83.44 64.76,-145.72 145.72,-145.72 82.19,0 145.71,62.28 145.71,145.72 0,80.95 -63.52,145.71 -145.71,145.71z"/>
 </g>
</svg>
