<?xml version="1.0" encoding="UTF-8"?>
<!DOCTYPE svg PUBLIC "-//W3C//DTD SVG 1.1//EN" "http://www.w3.org/Graphics/SVG/1.1/DTD/svg11.dtd">
<!-- Creator: CorelDRAW -->
<svg xmlns="http://www.w3.org/2000/svg" xml:space="preserve" width="3300px" height="3300px" version="1.1" style="shape-rendering:geometricPrecision; text-rendering:geometricPrecision; image-rendering:optimizeQuality; fill-rule:evenodd; clip-rule:evenodd"
viewBox="0 0 3300 3300"
 xmlns:xlink="http://www.w3.org/1999/xlink"
 xmlns:xodm="http://www.corel.com/coreldraw/odm/2003">
 <defs>
  <style type="text/css">
   <![CDATA[
    .str0 {stroke:white;stroke-width:150;stroke-miterlimit:2.61313}
    .fil0 {fill:none}
    .fil1 {fill:white;fill-rule:nonzero}
   ]]>
  </style>
 </defs>
 <g id="Layer_x0020_1">
  <metadata id="CorelCorpID_0Corel-Layer"/>
  <circle class="fil0 str0" cx="2274.42" cy="2279.93" r="933.85"/>
  <path class="fil1" d="M2034.52 1972.56c0,-112.6 91.55,-204.15 204.15,-204.15l102.08 0c112.61,0 204.16,91.55 204.16,204.15l0 11.49c0,69.54 -35.41,134.3 -93.79,171.62l-134.61 86.44c-80.39,51.68 -128.87,140.68 -128.87,236.06l0 4.78c0,56.46 45.61,102.08 102.07,102.08 56.47,0 102.08,-45.61 102.08,-102.08l0 -4.46c0,-26.16 13.4,-50.4 35.09,-64.44l134.62 -86.45c116.75,-75.28 187.56,-204.47 187.56,-343.55l0 -11.49c0,-225.52 -182.78,-408.31 -408.31,-408.31l-102.07 0c-225.53,0 -408.32,182.79 -408.32,408.31 0,56.47 45.62,102.08 102.08,102.08 56.47,0 102.08,-45.61 102.08,-102.08l0 0zm255.19 1020.78c70.46,0 127.6,-57.14 127.6,-127.6 0,-70.45 -57.14,-127.59 -127.6,-127.59 -70.45,0 -127.59,57.14 -127.59,127.59 0,70.46 57.14,127.6 127.59,127.6l0 0z"/>
  <path class="fil1" d="M3294.04 367.31l0 1123.15c0,88.1 -23.95,173.7 -68.41,247.92 -188.41,-330.23 -543.8,-552.87 -951.21,-552.87 -604.43,0 -1094.42,489.99 -1094.42,1094.42 0,406.6 221.74,761.4 550.89,950.1 -183.76,105.75 -422.35,80.1 -579.46,-77.02l-1002.94 -1002.94c-187.82,-187.81 -187.82,-492.08 0,-679.89l1322.23 -1322.23c90.15,-90.16 212.61,-140.49 340.32,-140.49l1122.4 0c199.08,-0.75 360.6,160.77 360.6,359.85zm-841.42 240.41c-132.75,0 -240.41,107.66 -240.41,240.41 0,132.75 107.66,240.4 240.41,240.4 132.75,0 240.41,-107.65 240.41,-240.4 0,-132.75 -107.66,-240.41 -240.41,-240.41l0 0z"/>
 </g>
</svg>
