<?xml version="1.0" encoding="UTF-8"?>
<!DOCTYPE svg PUBLIC "-//W3C//DTD SVG 1.1//EN" "http://www.w3.org/Graphics/SVG/1.1/DTD/svg11.dtd">
<!-- Creator: CorelDRAW -->
<svg xmlns="http://www.w3.org/2000/svg" xml:space="preserve" width="3300px" height="3300px" version="1.1" style="shape-rendering:geometricPrecision; text-rendering:geometricPrecision; image-rendering:optimizeQuality; fill-rule:evenodd; clip-rule:evenodd"
viewBox="0 0 3300 3300"
 xmlns:xlink="http://www.w3.org/1999/xlink"
 xmlns:xodm="http://www.corel.com/coreldraw/odm/2003">
 <defs>
  <style type="text/css">
   <![CDATA[
    .fil0 {fill:white;fill-rule:nonzero}
   ]]>
  </style>
 </defs>
 <g id="Layer_x0020_1">
  <metadata id="CorelCorpID_0Corel-Layer"/>
  <path class="fil0" d="M3294.04 367.31l0 1123.15c0,127.71 -50.33,250.17 -140.48,340.32l-1322.23 1322.23c-187.82,187.82 -492.08,187.82 -679.9,0l-1002.94 -1002.94c-187.82,-187.81 -187.82,-492.08 0,-679.89l1322.23 -1322.23c90.15,-90.16 212.61,-140.49 340.32,-140.49l1122.4 0c199.08,-0.75 360.6,160.77 360.6,359.85zm-841.42 240.41c-132.75,0 -240.41,107.66 -240.41,240.41 0,132.75 107.66,240.4 240.41,240.4 132.75,0 240.41,-107.65 240.41,-240.4 0,-132.75 -107.66,-240.41 -240.41,-240.41l0 0z"/>
 </g>
</svg>
