<svg width="20" height="20" viewBox="0 0 20 20" fill="none" xmlns="http://www.w3.org/2000/svg">
<path d="M4 16.5C4 16.8978 4.15804 17.2794 4.43934 17.5607C4.72064 17.842 5.10218 18 5.5 18H14.5C14.8978 18 15.2794 17.842 15.5607 17.5607C15.842 17.2794 16 16.8978 16 16.5V6.00001H4V16.5ZM12.5 8.50001C12.5 8.3674 12.5527 8.24022 12.6464 8.14645C12.7402 8.05268 12.8674 8.00001 13 8.00001C13.1326 8.00001 13.2598 8.05268 13.3536 8.14645C13.4473 8.24022 13.5 8.3674 13.5 8.50001V15.5C13.5 15.6326 13.4473 15.7598 13.3536 15.8536C13.2598 15.9473 13.1326 16 13 16C12.8674 16 12.7402 15.9473 12.6464 15.8536C12.5527 15.7598 12.5 15.6326 12.5 15.5V8.50001ZM9.5 8.50001C9.5 8.3674 9.55268 8.24022 9.64645 8.14645C9.74021 8.05268 9.86739 8.00001 10 8.00001C10.1326 8.00001 10.2598 8.05268 10.3536 8.14645C10.4473 8.24022 10.5 8.3674 10.5 8.50001V15.5C10.5 15.6326 10.4473 15.7598 10.3536 15.8536C10.2598 15.9473 10.1326 16 10 16C9.86739 16 9.74021 15.9473 9.64645 15.8536C9.55268 15.7598 9.5 15.6326 9.5 15.5V8.50001ZM6.5 8.50001C6.5 8.3674 6.55268 8.24022 6.64645 8.14645C6.74021 8.05268 6.86739 8.00001 7 8.00001C7.13261 8.00001 7.25979 8.05268 7.35355 8.14645C7.44732 8.24022 7.5 8.3674 7.5 8.50001V15.5C7.5 15.6326 7.44732 15.7598 7.35355 15.8536C7.25979 15.9473 7.13261 16 7 16C6.86739 16 6.74021 15.9473 6.64645 15.8536C6.55268 15.7598 6.5 15.6326 6.5 15.5V8.50001ZM16.5 3.00001H12.75L12.4563 2.41563C12.394 2.2907 12.2982 2.18561 12.1795 2.11218C12.0608 2.03875 11.9239 1.99991 11.7844 2.00001H8.2125C8.07324 1.99947 7.93665 2.03817 7.81838 2.11168C7.7001 2.18519 7.60492 2.29053 7.54375 2.41563L7.25 3.00001H3.5C3.36739 3.00001 3.24021 3.05268 3.14645 3.14645C3.05268 3.24022 3 3.3674 3 3.50001V4.50001C3 4.63261 3.05268 4.75979 3.14645 4.85356C3.24021 4.94733 3.36739 5.00001 3.5 5.00001H16.5C16.6326 5.00001 16.7598 4.94733 16.8536 4.85356C16.9473 4.75979 17 4.63261 17 4.50001V3.50001C17 3.3674 16.9473 3.24022 16.8536 3.14645C16.7598 3.05268 16.6326 3.00001 16.5 3.00001Z" fill="#A08CB5"/>
</svg>
