<svg width="16" height="14" viewBox="0 0 16 14" fill="none" xmlns="http://www.w3.org/2000/svg">
<path d="M11.293 13.7062C11.6836 14.0969 12.318 14.0969 12.7086 13.7063L15.7086 10.7063C16.0992 10.3156 16.0992 9.68125 15.7086 9.29062C15.318 8.9 14.6836 8.9 14.293 9.29062L12.9992 10.5844L12.9992 1C12.9992 0.446875 12.5523 -1.5077e-07 11.9992 -1.74948e-07C11.4461 -1.99126e-07 10.9992 0.446875 10.9992 1L10.9992 10.5844L9.70546 9.29062C9.31484 8.9 8.68046 8.9 8.28984 9.29062C7.89921 9.68125 7.89921 10.3156 8.28984 10.7062L11.2898 13.7062L11.293 13.7062ZM0.292962 3.29062C-0.0976631 3.68125 -0.0976631 4.31562 0.292962 4.70625C0.683587 5.09687 1.31796 5.09687 1.70859 4.70625L2.99921 3.41562L2.99921 13C2.99921 13.5531 3.44609 14 3.99921 14C4.55234 14 4.99921 13.5531 4.99921 13L4.99921 3.41562L6.29296 4.70937C6.68359 5.1 7.31796 5.1 7.70859 4.70937C8.09921 4.31875 8.09921 3.68437 7.70859 3.29375L4.70859 0.293749C4.31796 -0.0968755 3.68359 -0.0968756 3.29296 0.293749L0.292962 3.29375L0.292962 3.29062Z" fill="#A08CB5"/>
</svg>
