<svg width="16" height="14" viewBox="0 0 16 14" fill="none" xmlns="http://www.w3.org/2000/svg">
<path d="M11.2929 13.7062C11.6835 14.0969 12.3179 14.0969 12.7085 13.7063L15.7085 10.7063C16.0991 10.3156 16.0991 9.68125 15.7085 9.29062C15.3179 8.9 14.6835 8.9 14.2929 9.29062L12.9991 10.5844L12.9991 1C12.9991 0.446875 12.5522 -1.5077e-07 11.9991 -1.74948e-07C11.446 -1.99126e-07 10.9991 0.446875 10.9991 1L10.9991 10.5844L9.70537 9.29062C9.31475 8.9 8.68037 8.9 8.28975 9.29062C7.89912 9.68125 7.89912 10.3156 8.28975 10.7062L11.2897 13.7062L11.2929 13.7062ZM0.29287 3.29062C-0.0977556 3.68125 -0.0977556 4.31562 0.29287 4.70625C0.683495 5.09687 1.31787 5.09687 1.7085 4.70625L2.99912 3.41562L2.99912 13C2.99912 13.5531 3.44599 14 3.99912 14C4.55225 14 4.99912 13.5531 4.99912 13L4.99912 3.41562L6.29287 4.70937C6.6835 5.1 7.31787 5.1 7.7085 4.70937C8.09912 4.31875 8.09912 3.68437 7.7085 3.29375L4.7085 0.293749C4.31787 -0.0968755 3.6835 -0.0968756 3.29287 0.293749L0.29287 3.29375L0.29287 3.29062Z" fill="#DBBCFB"/>
</svg>
