<svg width="21" height="24" viewBox="0 0 21 24" fill="none" xmlns="http://www.w3.org/2000/svg">
<path d="M15.3516 12.6035L16.5752 14.8525L17.833 12.6035H19.9316L17.8398 16.2197L20.0273 20H17.9219L16.5889 17.6211L15.2559 20H13.1504L15.3379 16.2197L13.2461 12.6035H15.3516Z" fill="#DDDDDD"/>
<path d="M3.85714 3.85714V5.14286H8.14286V3.85714C8.14286 2.67321 7.18393 1.71429 6 1.71429C4.81607 1.71429 3.85714 2.67321 3.85714 3.85714ZM2.14286 5.14286V3.85714C2.14286 1.72768 3.87054 0 6 0C8.12946 0 9.85714 1.72768 9.85714 3.85714V5.14286H10.2857C11.2313 5.14286 12 5.91161 12 6.85714V12C12 12.9455 11.2313 13.7143 10.2857 13.7143H1.71429C0.76875 13.7143 0 12.9455 0 12V6.85714C0 5.91161 0.76875 5.14286 1.71429 5.14286H2.14286Z" fill="#DDDDDD"/>
</svg>
