<svg width="23" height="28" viewBox="0 0 23 28" fill="none" xmlns="http://www.w3.org/2000/svg">
<rect y="11" width="20" height="2" fill="#DBBCFB"/>
<path d="M9.81355 9.01111C10.0653 9.26223 10.4742 9.26223 10.726 9.01111L13.9486 5.79683C14.2004 5.54571 14.2004 5.1379 13.9486 4.88678C13.6969 4.63567 13.288 4.63567 13.0362 4.88678L10.9133 7.0062L10.9133 0.842808C10.9133 0.487228 10.6253 0.199951 10.2688 0.199951C9.91225 0.199951 9.62422 0.487228 9.62422 0.842808L9.62422 7.00419L7.5013 4.88879C7.24953 4.63767 6.84065 4.63767 6.58888 4.88879C6.33711 5.13991 6.33711 5.54772 6.58888 5.79884L9.81154 9.01312L9.81355 9.01111Z" fill="#DBBCFB"/>
<path d="M10.7239 14.9884C10.4722 14.7373 10.0633 14.7373 9.81151 14.9884L6.58885 18.2027C6.33708 18.4538 6.33708 18.8616 6.58885 19.1127C6.84062 19.3638 7.2495 19.3638 7.50127 19.1127L9.62419 16.9933L9.62419 23.1567C9.62419 23.5123 9.91222 23.7996 10.2687 23.7996C10.6252 23.7996 10.9133 23.5123 10.9133 23.1567L10.9133 16.9953L13.0362 19.1107C13.2879 19.3618 13.6968 19.3618 13.9486 19.1107C14.2004 18.8596 14.2004 18.4518 13.9486 18.2007L10.7259 14.9864L10.7239 14.9884Z" fill="#DBBCFB"/>
<path d="M17.96 24.166L19.9219 17.6035H22.0342L19.0605 26.1143C18.9967 26.3011 18.9102 26.5016 18.8008 26.7158C18.696 26.93 18.5524 27.1328 18.3701 27.3242C18.1924 27.5202 17.9668 27.6797 17.6934 27.8027C17.4245 27.9258 17.0941 27.9873 16.7021 27.9873C16.5153 27.9873 16.3626 27.9759 16.2441 27.9531C16.1257 27.9303 15.9844 27.8984 15.8203 27.8574V26.415C15.8704 26.415 15.9229 26.415 15.9775 26.415C16.0322 26.4196 16.0846 26.4219 16.1348 26.4219C16.3945 26.4219 16.6064 26.3923 16.7705 26.333C16.9346 26.2738 17.0667 26.1826 17.167 26.0596C17.2673 25.9411 17.347 25.7861 17.4062 25.5947L17.96 24.166ZM17.1396 17.6035L18.7461 22.9629L19.0264 25.0479L17.6865 25.1914L15.0273 17.6035H17.1396Z" fill="#DBBCFB"/>
</svg>
